<svg xmlns="http://www.w3.org/2000/svg" viewBox="0 0 960 205.85815"><path d="M251.508,16.83384H205.29528c-7.55563,0-13.95344,5.53986-16.13729,13.189h-9.69867l-5.15159,4.76178L151.78292,9.69355l-19.093,21.182-5.96681-6.59378-22.961,25.63493-15.134-16.92589-21.74766,24.258L57.05129,46.36109,28.333,75.23832l-7.70291-8.73844H14.86433l-4.948,5.3268L9.908,90.307v0c0,7.69355,5.56977,13.9304,12.44042,13.9304H190.43811c2.87994,5.871,8.45288,9.85127,14.85717,9.85127H251.508c9.35644,0,16.94134-8.49333,16.94134-18.97038v-59.314C268.44935,25.32717,260.86445,16.83384,251.508,16.83384Z"/><path d="M251.508,16.83384H205.29528c-7.55563,0-13.95344,5.53986-16.13729,13.189h-9.69867l-5.15159,4.76178L151.78292,9.69355l-19.093,21.182-5.96681-6.59378-22.961,25.63493-15.134-16.92589-21.74766,24.258L57.05129,46.36109,28.333,75.23832l-7.70291-8.73844H14.86433l-4.948,5.3268L9.908,90.307v0c0,7.69355,5.56977,13.9304,12.44042,13.9304H190.43811c2.87994,5.871,8.45288,9.85127,14.85717,9.85127H251.508c9.35644,0,16.94134-8.49333,16.94134-18.97038v-59.314C268.44935,25.32717,260.86445,16.83384,251.508,16.83384Z" style="fill:#c06ef0"/><path d="M251.50813,114.9214H205.29549c-6.34359,0-12.18842-3.76111-15.36916-9.85125H22.34839c-7.31864,0-13.273-6.62279-13.273-14.76331l.00813-18.4805a.833.833,0,0,1,.22255-.56654L14.25422,65.933a.8335.8335,0,0,1,.61018-.26592h5.76567a.832.832,0,0,1,.62455.28219l7.11506,8.07139L56.461,45.774a.83272.83272,0,0,1,1.20843.029l9.20881,10.20065,21.13-23.56876a.832.832,0,0,1,.61993-.27677h.00055a.833.833,0,0,1,.62021.27758L103.76278,48.668l22.34028-24.942a.8326.8326,0,0,1,.618-.277h.00217a.83274.83274,0,0,1,.6175.274l5.34822,5.91015L151.16434,9.13587a.83279.83279,0,0,1,.61858-.27514h.00108a.83316.83316,0,0,1,.61859.27649l21.9605,24.46222,4.53067-4.188a.83349.83349,0,0,1,.56546-.2212h9.08032c2.50848-7.9158,9.1714-13.1892,16.756-13.1892h46.21264c9.80082,0,17.77409,8.88379,17.77409,19.80332v59.314C269.28222,106.03787,261.309,114.9214,251.50813,114.9214ZM10.74874,72.15379l-.00786,18.15332c0,7.22186,5.207,13.09759,11.60751,13.09759H190.43811a.83276.83276,0,0,1,.74762.466c2.83973,5.789,8.2465,9.38527,14.10976,9.38527h46.21264c8.88244,0,16.10863-8.13645,16.10863-18.1376v-59.314c0-10.00114-7.22619-18.13787-16.10863-18.13787H205.29549c-7.02452,0-13.18758,5.05764-15.33663,12.585a.83266.83266,0,0,1-.80074.60422H179.785l-4.91179,4.54043a.84425.84425,0,0,1-.604.22038.83437.83437,0,0,1-.58117-.27568l-21.90629-24.402L133.30865,31.433a.83348.83348,0,0,1-.61777.27514h-.00081a.83275.83275,0,0,1-.6175-.27406l-5.34605-5.908L104.38245,50.47249a.83287.83287,0,0,1-.62021.277H103.762a.8326.8326,0,0,1-.62048-.27757L88.62729,34.23916l-21.127,23.56551a.83348.83348,0,0,1-.61859.27677.79888.79888,0,0,1-.61939-.2746L57.0221,47.57149l-28.09863,28.254a.84642.84642,0,0,1-.61533.24532.83314.83314,0,0,1-.59988-.28191L20.2541,67.33253H15.22737Z" style="fill:#fff"/><path d="M257.08447,55.03873c0-2.84431-2.55642-4.78615-4.92382-3.75531-5.072,2.20851-8.66693,7.72868-8.66693,14.189s3.59491,11.98054,8.66693,14.18905c2.3674,1.03083,4.92382-.911,4.92382-3.75531Z" style="fill:#fff"/><path d="M9.908,64.89215v59.314c0,10.47706,7.58489,18.97039,16.94134,18.97039H73.06209c6.40429,0,11.97723-3.9803,14.85717-9.85127H256.00893c6.87065,0,12.44042-6.23685,12.44042-13.9304v0l-.00829-18.48028-4.948-5.32681H257.7273l-7.70291,8.73845L221.30608,75.449l-9.82914,10.88766-21.74766-24.258-15.134,16.92589-22.961-25.63493-5.96681,6.59378-19.09295-21.182L104.04963,63.87254l-5.15158-4.76178H89.19938c-2.18385-7.64914-8.58166-13.189-16.13729-13.189H26.84936C17.49291,45.92176,9.908,54.4151,9.908,64.89215Z"/><path d="M9.908,64.89215v59.314c0,10.47706,7.58489,18.97039,16.94134,18.97039H73.06209c6.40429,0,11.97723-3.9803,14.85717-9.85127H256.00893c6.87065,0,12.44042-6.23685,12.44042-13.9304v0l-.00829-18.48028-4.948-5.32681H257.7273l-7.70291,8.73845L221.30608,75.449l-9.82914,10.88766-21.74766-24.258-15.134,16.92589-22.961-25.63493-5.96681,6.59378-19.09295-21.182L104.04963,63.87254l-5.15158-4.76178H89.19938c-2.18385-7.64914-8.58166-13.189-16.13729-13.189H26.84936C17.49291,45.92176,9.908,54.4151,9.908,64.89215Z" style="fill:#a83cde"/><path d="M73.06215,144.00943H26.84924c-9.80055,0-17.77382-8.88379-17.77382-19.80333v-59.314c0-10.91953,7.97327-19.80305,17.77382-19.80305H73.06215c7.58455,0,14.24693,5.2734,16.756,13.18893h9.08005a.83183.83183,0,0,1,.56518.2212l4.531,4.18831,21.9605-24.46222a.83329.83329,0,0,1,.61886-.27649h.00081a.83326.83326,0,0,1,.61858.27514l18.47562,20.49726,5.34823-5.91015a.83227.83227,0,0,1,.61749-.27405h.00217a.83258.83258,0,0,1,.618.277l22.34,24.94173,14.51419-16.23224a.833.833,0,0,1,.62021-.27758h.00055a.83309.83309,0,0,1,.62021.27677l21.1294,23.569,9.2088-10.20092a.83125.83125,0,0,1,.598-.27432.80386.80386,0,0,1,.61045.24532l28.091,28.2469,7.1156-8.0714a.83161.83161,0,0,1,.62455-.28218h5.76567a.83242.83242,0,0,1,.60991.26592l4.94758,5.3268a.832.832,0,0,1,.22282.56654l.00867,18.48c0,8.14079-5.95433,14.76358-13.27324,14.76358H88.431C85.25029,140.24833,79.40547,144.00943,73.06215,144.00943ZM26.84924,46.75449c-8.88217,0-16.10836,8.13645-16.10836,18.13759v59.314c0,10.00115,7.22619,18.13787,16.10836,18.13787H73.06215c5.86326,0,11.26976-3.59629,14.10949-9.38554a.83275.83275,0,0,1,.74761-.466H256.009c6.40052,0,11.60778-5.87546,11.60778-13.09759l-.00867-18.153L263.13,96.42056h-5.02619l-7.455,8.45632a.8321.8321,0,0,1-1.21493.03659L221.33527,76.65925,212.095,86.8946a.83137.83137,0,0,1-.618.27487h-.00163a.83438.83438,0,0,1-.61858-.27676L189.73062,63.32692,175.21588,79.55971a.85959.85959,0,0,1-1.241.00054l-22.3438-24.94607-5.34605,5.908a.83229.83229,0,0,1-.6175.27405h-.00108a.83334.83334,0,0,1-.6175-.27514L126.5758,40.02652l-21.90656,24.4023a.83244.83244,0,0,1-1.18485.0553l-4.91206-4.5407H89.19925a.83258.83258,0,0,1-.80074-.60421c-2.14905-7.52736-8.31211-12.58472-15.33636-12.58472Z" style="fill:#fff"/><path d="M21.2729,84.12666c0-2.84432,2.55642-4.78615,4.92382-3.75531,5.072,2.20851,8.66693,7.72868,8.66693,14.189s-3.59491,11.98054-8.66693,14.189c-2.3674,1.03084-4.92382-.911-4.92382-3.75531Z" style="fill:#fff"/><path d="M251.508,74.00861H205.29528c-7.55563,0-13.95344,5.53987-16.13729,13.189h-9.69867l-5.15159,4.76178L151.78292,66.86833l-19.093,21.182-5.96681-6.59378-22.961,25.63493-15.134-16.92589-21.74766,24.258-9.82914-10.88766L28.333,132.4131l-7.70291-8.73845H14.86433l-4.948,5.32681L9.908,147.48174v0c0,7.69355,5.56977,13.9304,12.44042,13.9304H190.43811c2.87994,5.871,8.45288,9.85127,14.85717,9.85127H251.508c9.35644,0,16.94134-8.49333,16.94134-18.97039V92.979C268.44935,82.50195,260.86445,74.00861,251.508,74.00861Z"/><path d="M251.508,74.00861H205.29528c-7.55563,0-13.95344,5.53987-16.13729,13.189h-9.69867l-5.15159,4.76178L151.78292,66.86833l-19.093,21.182-5.96681-6.59378-22.961,25.63493-15.134-16.92589-21.74766,24.258-9.82914-10.88766L28.333,132.4131l-7.70291-8.73845H14.86433l-4.948,5.32681L9.908,147.48174v0c0,7.69355,5.56977,13.9304,12.44042,13.9304H190.43811c2.87994,5.871,8.45288,9.85127,14.85717,9.85127H251.508c9.35644,0,16.94134-8.49333,16.94134-18.97039V92.979C268.44935,82.50195,260.86445,74.00861,251.508,74.00861Z" style="fill:#76219c"/><path d="M251.50813,172.0964H205.29549c-6.34359,0-12.18842-3.76138-15.36916-9.85179H22.34839c-7.31864,0-13.273-6.62279-13.273-14.76277l.00813-18.48077a.833.833,0,0,1,.22255-.56654l4.94812-5.32681a.8335.8335,0,0,1,.61018-.26592h5.76567a.832.832,0,0,1,.62455.28219l7.11506,8.07139L56.461,102.94875a.842.842,0,0,1,.61045-.24531.83217.83217,0,0,1,.598.27432l9.20881,10.20065,21.13-23.56876a.832.832,0,0,1,.61993-.27677h.00055a.833.833,0,0,1,.62021.27758l14.51392,16.23224L126.10306,80.901a.83258.83258,0,0,1,.618-.277h.00217a.83274.83274,0,0,1,.6175.27405l5.34794,5.90988,18.47563-20.497a.83283.83283,0,0,1,.61858-.27514h.00108a.83316.83316,0,0,1,.61859.27649l21.9605,24.462,4.53067-4.188a.83349.83349,0,0,1,.56546-.2212h9.08032c2.50848-7.91553,9.1714-13.18893,16.756-13.18893h46.21264c9.80082,0,17.77409,8.88352,17.77409,19.80305v59.314C269.28222,163.21288,261.309,172.0964,251.50813,172.0964ZM10.74874,129.32852l-.00786,18.15359c0,7.22186,5.207,13.097,11.60751,13.097H190.43811a.83206.83206,0,0,1,.74762.46625c2.83973,5.789,8.246,9.38554,14.10976,9.38554h46.21264c8.88244,0,16.10863-8.13645,16.10863-18.13787v-59.314c0-10.00114-7.22619-18.13759-16.10863-18.13759H205.29549c-7.02452,0-13.18758,5.05736-15.33663,12.58471a.83234.83234,0,0,1-.80074.60422H179.785l-4.91179,4.54043a.83277.83277,0,0,1-1.18512-.0553l-21.90629-24.402L133.30865,88.60777a.83348.83348,0,0,1-.61777.27514h-.00081a.83275.83275,0,0,1-.6175-.27406l-5.34605-5.90771-22.34407,24.94608a.83287.83287,0,0,1-.62021.277H103.762a.8326.8326,0,0,1-.62048-.27757L88.62729,91.41389l-21.127,23.56552a.83253.83253,0,0,1-.61859.27676.95145.95145,0,0,1-.61939-.2746L57.0221,104.74622l-28.09863,28.254a.83243.83243,0,0,1-1.21521-.03659l-7.45416-8.45632H15.22737Z" style="fill:#fff"/><path d="M257.08447,112.21351c0-2.84432-2.55642-4.78615-4.92382-3.75531-5.072,2.20851-8.66693,7.72868-8.66693,14.189s3.59491,11.98054,8.66693,14.189c2.3674,1.03083,4.92382-.911,4.92382-3.75531Z" style="fill:#fff"/><path d="M304.35176,78.18384h13.34376V74.80791c0-26.52683,10.611-38.58444,34.244-38.58444a70.715,70.715,0,0,1,17.36288,2.41138V57.92707a36.98417,36.98417,0,0,0-11.41465-1.76842c-13.18284,0-15.59422,7.07393-15.59422,18.64926v3.37593h24.91885V97.31539H342.29349v61.25283h-24.598V97.31539H304.35176Z" style="fill:#202124"/><path d="M343.7389,160.01364H316.2501V98.7608H302.90635V76.73843H316.2501V74.80791c0-27.31,11.34032-40.02986,35.68938-40.02986a71.68864,71.68864,0,0,1,17.76,2.4669l1.0483.29972V59.97l-1.92628-.67989a35.67051,35.67051,0,0,0-10.93379-1.68609c-11.96045,0-14.14881,5.79367-14.14881,17.20385v1.93052h24.91886V98.7608H343.7389Zm-24.598-2.89083h21.70713V95.87h24.91886V79.62926H340.84807V74.80791c0-7.04052.93162-11.37513,3.1148-14.49416,2.6377-3.76858,7.19273-5.60052,13.92484-5.60052A40.256,40.256,0,0,1,367.857,55.978V39.74126a70.39883,70.39883,0,0,0-15.91747-2.07238c-11.4777,0-19.62323,2.89742-24.90239,8.85765-5.3135,5.99881-7.89615,15.24981-7.89615,28.28138v4.82135H305.79718V95.87h13.34376Z" style="fill:#fff"/><path d="M410.61814,160.176c-25.40113,0-41.15674-15.11242-41.15674-42.1213,0-27.813,16.55924-41.47833,41.15674-41.47833,24.27613,0,41.31765,13.66535,41.31765,41.47833C451.93579,145.06355,435.85882,160.176,410.61814,160.176Zm0-64.46833c-10.61055,0-16.71969,8.36008-16.71969,22.347,0,13.66512,5.14459,22.98975,16.71969,22.98975,11.41465,0,16.8806-9.32463,16.8806-22.98975C427.49874,104.06772,421.3896,95.70764,410.61814,95.70764Z" style="fill:#202124"/><path d="M410.61814,161.62138c-26.67623,0-42.60216-16.28681-42.60216-43.56671,0-13.894,3.97066-24.73229,11.80141-32.21416,7.333-7.00618,17.98349-10.70959,30.80075-10.70959,26.77691,0,42.76307,16.04615,42.76307,42.92375,0,13.49409-4.01771,24.63279-11.61838,32.21229C434.31413,157.695,423.54408,161.62138,410.61814,161.62138Zm0-83.59963c-25.23693,0-39.71133,14.59133-39.71133,40.03292,0,12.74221,3.67659,23.17467,10.63266,30.16979,6.83421,6.87326,16.88955,10.50609,29.07867,10.50609,12.14442,0,22.20823-3.63424,29.1036-10.51033,7.045-7.02523,10.76864-17.45628,10.76864-30.16555,0-13.02381-3.73541-23.15725-11.10271-30.1185C432.52336,81.45015,422.57529,78.02175,410.61814,78.02175Zm0,64.46809c-11.544,0-18.16511-8.90635-18.16511-24.43517,0-14.8981,6.79092-23.79244,18.16511-23.79244,11.47535,0,18.326,8.89434,18.326,23.79244C428.94416,133.58349,422.26475,142.48984,410.61814,142.48984Zm0-45.33678c-9.70716,0-15.27428,7.61832-15.27428,20.90161,0,17.80658,8.30645,21.54434,15.27428,21.54434,5.76473,0,15.43519-2.79909,15.43519-21.54434C426.05333,104.77138,420.4274,97.15306,410.61814,97.15306Z" style="fill:#fff"/><path d="M538.58694,158.56822H517.68721l-2.41185-8.52052c-6.10915,5.305-14.46923,10.28918-25.723,10.28918-16.71969,0-28.77753-9.80691-28.77753-29.58164V78.18384h24.43705v45.65838c0,12.86125,6.75233,15.59446,12.05737,15.59446a26.264,26.264,0,0,0,16.88061-6.10914V78.18384h24.43705Z" style="fill:#202124"/><path d="M489.55239,161.7823c-8.89458,0-16.38515-2.6904-21.662-7.78041-5.60052-5.402-8.561-13.44068-8.561-23.24665V76.73843h27.32788v47.10379c0,11.69438,5.77085,14.149,10.612,14.149a24.70992,24.70992,0,0,0,15.43519-5.37726V76.73843h27.32789v83.27521H516.59421l-2.1032-7.43035C506.75436,158.7696,498.57543,161.7823,489.55239,161.7823Zm-27.33212-82.153v51.126c0,17.6179,10.21767,28.13623,27.33212,28.13623,8.97269,0,17.07681-3.24984,24.77535-9.93536l1.71832-1.492,2.73415,9.6587h18.36131V79.62926H515.59531v54.4031l-.55568.43429c-5.6024,4.37671-11.249,6.41545-17.77035,6.41545a12.60625,12.60625,0,0,1-9.0268-3.3844c-2.96988-2.89413-4.476-7.48822-4.476-13.65548v-44.213Z" style="fill:#fff"/><path d="M552.08973,158.56822V78.18384h24.43658V92.814c5.30551-10.28919,14.46923-17.20244,22.50748-17.20244a27.87755,27.87755,0,0,1,6.75233.80387V99.727a32.44629,32.44629,0,0,0-8.84235-.96478c-7.71689,0-15.27287,4.18-20.41746,13.66535v46.14065Z" style="fill:#202124"/><path d="M577.97173,160.01364H550.64431V76.73843h27.32742V87.59105c5.64616-8.19,13.67217-13.42492,21.06206-13.42492a29.189,29.189,0,0,1,7.13909.85657l1.05866.29407v26.31181l-1.83218-.50886a31.21319,31.21319,0,0,0-8.45559-.91209c-7.73148,0-14.45747,4.46753-18.972,12.5907Zm-24.43658-2.89083h21.54574v-45.062l.175-.3223c5.04391-9.29993,12.74621-14.4217,21.68785-14.4217a37.93091,37.93091,0,0,1,7.39694.58508V77.571a28.218,28.218,0,0,0-5.30692-.514c-7.51081,0-16.23789,6.75186-21.223,16.4195l-2.72992,5.29445V79.62926H553.53515Z" style="fill:#fff"/><path d="M697.42,158.56822l-32.4753-38.10217v38.10217H640.34721V37.99189H664.9447v70.41655c19.13155-4.98391,26.68752-16.39833,28.13435-30.2246h25.24068c-.80363,17.36312-9.96782,33.1185-27.16979,37.94149l34.88668,42.44289Z" style="fill:#202124"/><path d="M729.0959,160.01364H696.75282l-30.3627-35.6235v35.6235H638.90179V36.54647h27.48833V106.509c15.45636-4.53716,23.72281-13.86791,25.25151-28.47546l.13551-1.29509h28.05624l-.06964,1.51223c-.8681,18.75419-10.81334,33.342-26.13419,38.61479Zm-31.00871-2.89083h24.89016l-34.35077-41.79123,2.13331-.598c14.83858-4.16028,24.70995-17.53909,26.02456-35.1043H694.36261c-2.08155,15.54576-11.84988,25.69615-29.05373,30.178l-1.80959.47145V39.43731H641.79262v117.6855h21.70667V116.542Z" style="fill:#fff"/><path d="M748.54457,125.45c2.09,10.289,9.16419,14.95126,26.20571,14.95126a130.53808,130.53808,0,0,0,26.04432-2.89365v19.292a164.91426,164.91426,0,0,1-31.67166,3.37641c-30.38481,0-46.46178-13.50468-46.46178-42.76449,0-26.52683,13.34376-40.83514,39.38808-40.83514,26.0448,0,38.424,14.14763,38.424,40.03127V125.45Zm-.64272-14.30855h28.4557v-2.2507c0-9.96759-5.62687-14.30831-13.826-14.30831S749.02732,98.60154,747.90185,111.14142Z" style="fill:#202124"/><path d="M769.12294,161.62138c-15.66668,0-27.64125-3.62718-35.592-10.78087-8.17188-7.35224-12.31522-18.59962-12.31522-33.429,0-13.64488,3.47475-24.19732,10.32824-31.36418,6.9269-7.24355,17.19021-10.91638,30.50526-10.91638,13.2299,0,23.33464,3.62225,30.03334,10.766,6.52649,6.96054,9.83608,17.293,9.83608,30.71064v10.28777H750.38145c2.46832,8.64592,9.50249,12.06044,24.36883,12.06044a129.78163,129.78163,0,0,0,25.73943-2.8612l1.75031-.37735V157.974l-1.14993.24044A166.07226,166.07226,0,0,1,769.12294,161.62138Zm-7.0737-83.59963c-12.49542,0-22.05578,3.37241-28.41618,10.02358-6.32135,6.61048-9.52648,16.49079-9.52648,29.36615,0,27.80357,14.72518,41.31907,45.01636,41.31907A163.07461,163.07461,0,0,0,799.34919,155.62V139.28376a132.60051,132.60051,0,0,1-24.59891,2.56289c-17.29513,0-25.29809-4.667-27.62243-16.109l-.35194-1.73314h52.25192v-7.39694c0-12.65893-3.04611-22.32609-9.05409-28.73331C783.84342,81.33652,774.44821,78.02175,762.04924,78.02175ZM777.803,112.58684h-31.482l.14116-1.57457C747.557,98.817,752.663,93.137,762.53152,93.137c9.70528,0,15.27145,5.74191,15.27145,15.75373Zm-28.291-2.89084h25.4002v-.80528c0-5.868-2.1479-12.86289-12.38062-12.86289C756.92206,96.02783,751.04347,97.69486,749.51194,109.696Z" style="fill:#fff"/><path d="M816.38694,194.0981c6.10915-12.05785,12.37921-24.11522,18.00608-36.17307-16.39833-26.36592-26.84843-53.05343-31.83211-79.74119h25.07977a204.55454,204.55454,0,0,0,17.5238,55.46529c6.91325-17.5238,12.70057-35.85147,15.916-55.46529h24.91933c-6.75234,40.35311-26.688,80.86666-44.69359,115.91426Z" style="fill:#202124"/><path d="M842.18848,195.54351h-28.1541l1.06336-2.09849q1.8357-3.62412,3.68506-7.24825c4.70513-9.23806,9.567-18.78337,13.96954-28.17528C816.8217,132.24371,806.18716,105.47621,801.14,78.44921l-.31948-1.71078h28.0393l.20562,1.20145a202.65254,202.65254,0,0,0,15.96592,52.0696c7.23132-18.80195,11.89552-35.42354,14.62262-52.05948l.199-1.21157h27.85439l-.28183,1.684c-6.65683,39.781-25.79825,79.28431-44.83381,116.3363Zm-23.44756-2.89083h21.68267c18.52787-36.0959,37.06845-74.49614,43.86125-113.02342h-21.98c-2.94165,17.35112-7.97426,34.72459-15.7956,54.55038l-1.20546,3.05551-1.43883-2.95294a203.81122,203.81122,0,0,1-17.44-54.65295h-22.116c5.15071,26.32522,15.68032,52.39966,31.31172,77.5326l.41358.66483-.33124.70954c-4.51034,9.66528-9.50955,19.48066-14.34407,28.97233Q820.049,190.08038,818.74092,192.65268Z" style="fill:#fff"/><path d="M949.82123,98.60154a105.3602,105.3602,0,0,0-23.9543-2.733c-8.36009,0-11.25374,2.2507-11.25374,5.62687,0,5.30527,9.32463,6.27006,19.292,9.48531,10.77147,3.53685,20.257,8.35985,20.257,23.63271,0,19.45337-14.79058,25.56252-38.10216,25.56252-12.21829,0-19.45291-1.44683-26.20524-3.37641v-19.292a125.7944,125.7944,0,0,0,25.88388,3.37593c7.556,0,13.18284-1.28591,13.18284-6.91278,0-4.98391-7.0737-6.59166-15.91606-9.48555-11.736-3.69753-22.347-8.35985-22.347-22.82907,0-13.826,9.00328-25.07977,36.334-25.07977a92.89506,92.89506,0,0,1,22.82884,2.89389Z" style="fill:#202124"/><path d="M916.06,161.62138c-12.111,0-19.39362-1.372-26.60236-3.43192l-1.0483-.29972V135.6881l1.77242.4117a123.82252,123.82252,0,0,0,25.55688,3.33829c8.337,0,11.73742-1.58422,11.73742-5.46736,0-3.20255-4.32213-4.73266-11.96139-7.16169-.958-.30442-1.947-.619-2.95906-.9502-11.80329-3.7187-23.34263-8.65509-23.34263-24.20273,0-12.10066,6.55425-26.52519,37.77939-26.52519a95.23681,95.23681,0,0,1,23.16808,2.93436l1.10618.267v22.13013l-1.803-.4604a104.185,104.185,0,0,0-23.59671-2.688c-9.80833,0-9.80833,3.14726-9.80833,4.18145,0,2.83319,4.381,4.17957,11.52852,6.14137,2.1766.59755,4.428,1.21534,6.76175,1.9684,10.28918,3.37828,21.25873,8.37349,21.25873,25.00825C955.6076,158.82183,933.03708,161.62138,916.06,161.62138Zm-24.75983-5.91764c6.64506,1.82888,13.57431,3.02681,24.75983,3.02681,25.35125,0,36.65675-7.43787,36.65675-24.1171,0-14.71578-9.11149-18.9264-19.26235-22.25952-2.26646-.73094-4.48587-1.34025-6.63235-1.92934-7.32684-2.011-13.6543-3.74787-13.6543-8.92916,0-4.6929,4.27273-7.07229,12.69916-7.07229a110.66589,110.66589,0,0,1,22.50888,2.34575V80.61311a91.35126,91.35126,0,0,0-21.38342-2.59136c-12.42861,0-21.685,2.36786-27.51232,7.03771-4.89428,3.92243-7.37624,9.50648-7.37624,16.59665,0,13.60183,10.09251,17.908,21.3359,21.45046,1.0196.3336,2.00062.64555,2.95106.94762,7.80864,2.48266,13.97612,4.44376,13.97612,9.91654,0,8.3582-10.25107,8.3582-14.62825,8.3582a124.67981,124.67981,0,0,1-24.43847-3.01458Z" style="fill:#fff"/><path d="M304.35176,78.18384h13.34376V74.80791c0-26.52683,10.611-38.58444,34.244-38.58444a70.715,70.715,0,0,1,17.36288,2.41138V57.92707a36.98417,36.98417,0,0,0-11.41465-1.76842c-13.18284,0-15.59422,7.07393-15.59422,18.64926v3.37593h24.91885V97.31539H342.29349v61.25283h-24.598V97.31539H304.35176Z" style="fill:#202124"/><path d="M410.61814,160.176c-25.40113,0-41.15674-15.11242-41.15674-42.1213,0-27.813,16.55924-41.47833,41.15674-41.47833,24.27613,0,41.31765,13.66535,41.31765,41.47833C451.93579,145.06355,435.85882,160.176,410.61814,160.176Zm0-64.46833c-10.61055,0-16.71969,8.36008-16.71969,22.347,0,13.66512,5.14459,22.98975,16.71969,22.98975,11.41465,0,16.8806-9.32463,16.8806-22.98975C427.49874,104.06772,421.3896,95.70764,410.61814,95.70764Z" style="fill:#202124"/><path d="M538.58694,158.56822H517.68721l-2.41185-8.52052c-6.10915,5.305-14.46923,10.28918-25.723,10.28918-16.71969,0-28.77753-9.80691-28.77753-29.58164V78.18384h24.43705v45.65838c0,12.86125,6.75233,15.59446,12.05737,15.59446a26.264,26.264,0,0,0,16.88061-6.10914V78.18384h24.43705Z" style="fill:#202124"/><path d="M552.08973,158.56822V78.18384h24.43658V92.814c5.30551-10.28919,14.46923-17.20244,22.50748-17.20244a27.87755,27.87755,0,0,1,6.75233.80387V99.727a32.44629,32.44629,0,0,0-8.84235-.96478c-7.71689,0-15.27287,4.18-20.41746,13.66535v46.14065Z" style="fill:#202124"/><path d="M697.42,158.56822l-32.4753-38.10217v38.10217H640.34721V37.99189H664.9447v70.41655c19.13155-4.98391,26.68752-16.39833,28.13435-30.2246h25.24068c-.80363,17.36312-9.96782,33.1185-27.16979,37.94149l34.88668,42.44289Z" style="fill:#202124"/><path d="M748.54457,125.45c2.09,10.289,9.16419,14.95126,26.20571,14.95126a130.53808,130.53808,0,0,0,26.04432-2.89365v19.292a164.91426,164.91426,0,0,1-31.67166,3.37641c-30.38481,0-46.46178-13.50468-46.46178-42.76449,0-26.52683,13.34376-40.83514,39.38808-40.83514,26.0448,0,38.424,14.14763,38.424,40.03127V125.45Zm-.64272-14.30855h28.4557v-2.2507c0-9.96759-5.62687-14.30831-13.826-14.30831S749.02732,98.60154,747.90185,111.14142Z" style="fill:#202124"/><path d="M816.38694,194.0981c6.10915-12.05785,12.37921-24.11522,18.00608-36.17307-16.39833-26.36592-26.84843-53.05343-31.83211-79.74119h25.07977a204.55454,204.55454,0,0,0,17.5238,55.46529c6.91325-17.5238,12.70057-35.85147,15.916-55.46529h24.91933c-6.75234,40.35311-26.688,80.86666-44.69359,115.91426Z" style="fill:#202124"/><path d="M949.82123,98.60154a105.3602,105.3602,0,0,0-23.9543-2.733c-8.36009,0-11.25374,2.2507-11.25374,5.62687,0,5.30527,9.32463,6.27006,19.292,9.48531,10.77147,3.53685,20.257,8.35985,20.257,23.63271,0,19.45337-14.79058,25.56252-38.10216,25.56252-12.21829,0-19.45291-1.44683-26.20524-3.37641v-19.292a125.7944,125.7944,0,0,0,25.88388,3.37593c7.556,0,13.18284-1.28591,13.18284-6.91278,0-4.98391-7.0737-6.59166-15.91606-9.48555-11.736-3.69753-22.347-8.35985-22.347-22.82907,0-13.826,9.00328-25.07977,36.334-25.07977a92.89506,92.89506,0,0,1,22.82884,2.89389Z" style="fill:#202124"/><path d="M9.908,122.06693v59.314c0,10.47706,7.58489,18.97039,16.94134,18.97039H73.06209c6.40429,0,11.97723-3.9803,14.85717-9.85127H256.00893c6.87065,0,12.44042-6.23685,12.44042-13.9304v0l-.00829-18.48028-4.948-5.32681H257.7273l-7.70291,8.73844L221.30608,132.6238l-9.82914,10.88766-21.74766-24.258-15.134,16.92589-22.961-25.63493-5.96681,6.59378-19.09295-21.182-22.52482,25.091-5.15158-4.76177H89.19938c-2.18385-7.64914-8.58166-13.189-16.13729-13.189H26.84936C17.49291,103.09654,9.908,111.58987,9.908,122.06693Z"/><path d="M9.908,122.06693v59.314c0,10.47706,7.58489,18.97039,16.94134,18.97039H73.06209c6.40429,0,11.97723-3.9803,14.85717-9.85127H256.00893c6.87065,0,12.44042-6.23685,12.44042-13.9304v0l-.00829-18.48028-4.948-5.32681H257.7273l-7.70291,8.73844L221.30608,132.6238l-9.82914,10.88766-21.74766-24.258-15.134,16.92589-22.961-25.63493-5.96681,6.59378-19.09295-21.182-22.52482,25.091-5.15158-4.76177H89.19938c-2.18385-7.64914-8.58166-13.189-16.13729-13.189H26.84936C17.49291,103.09654,9.908,111.58987,9.908,122.06693Z" style="fill:#480766"/><path d="M73.06215,201.18389H26.84924c-9.80055,0-17.77382-8.88352-17.77382-19.80279V122.06681c0-10.91953,7.97327-19.803,17.77382-19.803H73.06215c7.58455,0,14.24693,5.2734,16.756,13.18893h9.08005a.83183.83183,0,0,1,.56518.2212l4.531,4.18831L125.95478,95.4a.83329.83329,0,0,1,.61886-.27649h.00081a.83326.83326,0,0,1,.61858.27514l18.47562,20.49726,5.34823-5.91015a.83231.83231,0,0,1,.61749-.27405h.00217a.83258.83258,0,0,1,.618.277l22.34,24.94173,14.51419-16.23224a.833.833,0,0,1,.62021-.27757h.00055a.83308.83308,0,0,1,.62021.27676l21.1294,23.569,9.2088-10.20066a.83272.83272,0,0,1,1.20844-.029l28.091,28.24636,7.1156-8.0714a.83135.83135,0,0,1,.62455-.28191h5.76567a.83166.83166,0,0,1,.60991.26619l4.94758,5.32708a.83158.83158,0,0,1,.22282.566l.00867,18.48c0,8.14079-5.95433,14.76358-13.27324,14.76358H88.431C85.25029,197.42251,79.40574,201.18389,73.06215,201.18389ZM26.84924,103.92922c-8.88217,0-16.10836,8.13645-16.10836,18.13759V181.3811c0,10.00088,7.22619,18.13733,16.10836,18.13733H73.06215c5.86353,0,11.27-3.596,14.10949-9.385a.832.832,0,0,1,.74761-.46624H256.009c6.40052,0,11.60778-5.87573,11.60778-13.09759l-.00867-18.1525L263.13,153.59529h-5.02619l-7.455,8.45632a.832.832,0,0,1-.5996.28137.78855.78855,0,0,1-.61533-.245l-28.09863-28.25367L212.095,144.06961a.83212.83212,0,0,1-.618.27459h-.00163a.83438.83438,0,0,1-.61858-.27676l-21.12615-23.56579-14.51474,16.23279a.85959.85959,0,0,1-1.241.00054l-22.3438-24.94607-5.34605,5.908a.83229.83229,0,0,1-.6175.27405h-.00108a.83334.83334,0,0,1-.6175-.27514L126.5758,97.20125l-21.90656,24.4023a.83244.83244,0,0,1-1.18485.0553l-4.91206-4.5407H89.19925a.83258.83258,0,0,1-.80074-.60421c-2.14905-7.52736-8.31211-12.58472-15.33636-12.58472Z" style="fill:#fff"/><path d="M21.2729,141.30144c0-2.84432,2.55642-4.78615,4.92382-3.75531,5.072,2.20851,8.66693,7.72868,8.66693,14.189s-3.59491,11.98053-8.66693,14.189c-2.3674,1.03084-4.92382-.911-4.92382-3.75531Z" style="fill:#fff"/></svg>